<svg width="16" height="16" viewBox="0 0 16 16" fill="none" xmlns="http://www.w3.org/2000/svg">
<path d="M3.61659 13.0001H12.3833L11.3333 5.66675H4.66659L3.61659 13.0001ZM7.99992 4.66675C8.28881 4.66675 8.5277 4.56953 8.71659 4.37508C8.90547 4.18064 8.99992 3.94453 8.99992 3.66675C8.99992 3.37786 8.90547 3.13897 8.71659 2.95008C8.5277 2.76119 8.28881 2.66675 7.99992 2.66675C7.72214 2.66675 7.48603 2.76119 7.29159 2.95008C7.09714 3.13897 6.99992 3.37786 6.99992 3.66675C6.99992 3.94453 7.09714 4.18064 7.29159 4.37508C7.48603 4.56953 7.72214 4.66675 7.99992 4.66675ZM9.73325 4.66675H11.3333C11.5888 4.66675 11.811 4.7473 11.9999 4.90841C12.1888 5.06953 12.2999 5.27786 12.3333 5.53341L13.3666 12.8667C13.411 13.1667 13.336 13.4306 13.1416 13.6584C12.9471 13.8862 12.6944 14.0001 12.3833 14.0001H3.61659C3.30547 14.0001 3.0527 13.8862 2.85825 13.6584C2.66381 13.4306 2.58881 13.1667 2.63325 12.8667L3.66659 5.53341C3.69992 5.27786 3.81103 5.06953 3.99992 4.90841C4.18881 4.7473 4.41103 4.66675 4.66659 4.66675H6.26659C6.1777 4.51119 6.11103 4.35286 6.06659 4.19175C6.02214 4.03064 5.99992 3.85564 5.99992 3.66675C5.99992 3.11119 6.19436 2.63897 6.58325 2.25008C6.97214 1.86119 7.44436 1.66675 7.99992 1.66675C8.55547 1.66675 9.0277 1.86119 9.41659 2.25008C9.80547 2.63897 9.99992 3.11119 9.99992 3.66675C9.99992 3.85564 9.9777 4.03064 9.93325 4.19175C9.88881 4.35286 9.82214 4.51119 9.73325 4.66675ZM3.61659 13.0001H12.3833H3.61659Z" fill="#1D1D1D"/>
</svg>
